<?xml version="1.0" encoding="UTF-8" standalone="no"?>
<svg
   xmlns:dc="http://purl.org/dc/elements/1.1/"
   xmlns:cc="http://creativecommons.org/ns#"
   xmlns:rdf="http://www.w3.org/1999/02/22-rdf-syntax-ns#"
   xmlns:svg="http://www.w3.org/2000/svg"
   xmlns="http://www.w3.org/2000/svg"
   xmlns:sodipodi="http://sodipodi.sourceforge.net/DTD/sodipodi-0.dtd"
   xmlns:inkscape="http://www.inkscape.org/namespaces/inkscape"
   width="18"
   height="18"
   android:tint="#FFFFFF"
   android:viewportWidth="24.0"
   android:viewportHeight="24.0"
   version="1.1"
   id="svg4"
   sodipodi:docname="ic_import.svg"
   inkscape:version="1.0.2-2 (e86c870879, 2021-01-15)"
   inkscape:export-filename="C:\Users\Noah\Desktop\ic_import.png"
   inkscape:export-xdpi="3530.2822"
   inkscape:export-ydpi="3530.2822">
  <metadata
     id="metadata10">
    <rdf:RDF>
      <cc:Work
         rdf:about="">
        <dc:format>image/svg+xml</dc:format>
        <dc:type
           rdf:resource="http://purl.org/dc/dcmitype/StillImage" />
        <dc:title />
      </cc:Work>
    </rdf:RDF>
  </metadata>
  <defs
     id="defs8" />
  <sodipodi:namedview
     pagecolor="#ffffff"
     bordercolor="#666666"
     borderopacity="1"
     objecttolerance="10"
     gridtolerance="10"
     guidetolerance="10"
     inkscape:pageopacity="0"
     inkscape:pageshadow="2"
     inkscape:window-width="1366"
     inkscape:window-height="715"
     id="namedview6"
     showgrid="false"
     inkscape:showpageshadow="false"
     showborder="false"
     inkscape:zoom="14.014396"
     inkscape:cx="6.8615234"
     inkscape:cy="6.8632202"
     inkscape:window-x="-8"
     inkscape:window-y="-8"
     inkscape:window-maximized="1"
     inkscape:current-layer="svg4"
     inkscape:document-rotation="0" />
  <g
     id="g939">
    <circle
       style="fill:#ef00a2;fill-opacity:0.11290322;stroke-width:0.827586"
       id="circle900"
       cx="18.480995"
       cy="8.9194002"
       r="1.7125249" />
    <circle
       style="fill:#09e600;fill-opacity:0.0524193"
       id="circle892"
       cx="-5.5657053"
       cy="15.840855"
       r="2.0693009" />
    <circle
       style="fill:#09e600;fill-opacity:0.05241935"
       id="circle890"
       cx="-2.7114973"
       cy="7.7063618"
       r="2.0693009" />
    <circle
       style="fill:#d700e6;fill-opacity:0.0604839"
       id="circle888"
       cx="11.060057"
       cy="12.273093"
       r="2.0693009" />
    <circle
       style="fill:#e04100;fill-opacity:0.185484;stroke-width:0.689655"
       id="circle884"
       cx="-3.7818253"
       cy="13.557488"
       r="1.4271041" />
    <g
       id="g915"
       transform="matrix(0.98743956,0,0,0.98743956,-13.255079,-4.0317145)">
      <path
         fill="#FF000000"
         d="M 7.2185763,10.572718 H 5.3008505 c -0.3515831,0 -0.6360457,0.287659 -0.6360457,0.639242 l -0.0032,3.835452 c 0,0.351583 0.2876588,0.639242 0.6392419,0.639242 h 5.1139353 c 0.351583,0 0.639242,-0.287659 0.639242,-0.639242 v -3.19621 c 0,-0.351583 -0.287659,-0.639242 -0.639242,-0.639242 H 7.8578183 Z"
         id="path835"
         style="fill:#0066ff;stroke-width:0.319621" />
      <g
         id="g893">
        <rect
           style="fill:#dbe3e2;fill-opacity:1;stroke-width:0.836553"
           id="rect837"
           width="6.3924189"
           height="5.4703627"
           x="4.643126"
           y="10.831118"
           ry="0.95208991" />
        <g
           id="g885">
          <rect
             style="fill:#adbfbd;fill-opacity:1;stroke-width:0.782804"
             id="rect856"
             width="5.5799642"
             height="0.68465811"
             x="5.0322371"
             y="11.29686"
             ry="0.34232906" />
          <rect
             style="fill:#adbfbd;fill-opacity:1;stroke-width:0.782804"
             id="rect875"
             width="5.5799642"
             height="0.68465811"
             x="5.0322371"
             y="12.552067"
             ry="0.34232906" />
          <rect
             style="fill:#adbfbd;fill-opacity:1;stroke-width:0.782804"
             id="rect877"
             width="5.5799642"
             height="0.68465811"
             x="5.0322371"
             y="13.807274"
             ry="0.34232906" />
          <rect
             style="fill:#adbfbd;fill-opacity:1;stroke-width:0.782804"
             id="rect879"
             width="5.5799642"
             height="0.68465811"
             x="5.0322371"
             y="15.062481"
             ry="0.34232906" />
        </g>
      </g>
      <path
         fill="#FF000000"
         d="M 7.2185763,11.017745 H 5.3008505 c -0.3515831,0 -0.6360457,0.297287 -0.6360457,0.660638 l -0.0032,3.963825 c 0,0.363351 0.2876588,0.660638 0.6392419,0.660638 h 5.1139353 c 0.351583,0 0.639242,-0.297287 0.639242,-0.660638 v -3.303187 c 0,-0.363351 -0.287659,-0.660638 -0.639242,-0.660638 H 7.8578183 Z"
         id="path2"
         style="fill:#0044aa;stroke-width:0.324926" />
    </g>
    <g
       id="g1052"
       transform="rotate(-89.76518,5.1908371,11.511855)">
      <path
         fill="#ffffff"
         d="M 7.762207,9.5552076 7.4927056,9.2857059 6.4242557,10.352245 V 8.0261201 H 6.0419838 V 10.352245 L 4.9735341,9.2857059 4.7040324,9.5552076 6.2331198,11.084295 Z"
         id="path895"
         style="fill:#ff0000;stroke-width:0.191136" />
      <path
         fill="#ffffff"
         d="M 10.820382,9.5552076 10.550881,9.2857059 9.4824306,10.352245 V 8.0261201 H 9.1001584 V 10.352245 L 8.0317087,9.2857059 7.762207,9.5552076 9.2912946,11.084295 Z"
         id="path964"
         style="fill:#ff0000;stroke-width:0.191136" />
    </g>
    <g
       id="g880"
       transform="translate(18.195576)">
      <path
         id="ellipse919"
         style="fill:#ff9955;stroke:#ff6600;stroke-width:0.520004;stroke-linecap:round;stroke-linejoin:round"
         d="M -2.490544,6.9104427 A 2.7091454,1.0646571 0 0 1 -5.1996892,7.9750999 2.7091454,1.0646571 0 0 1 -7.9088346,6.9104427 2.7091454,1.0646571 0 0 1 -5.1996892,5.8457856 2.7091454,1.0646571 0 0 1 -2.490544,6.9104427 Z" />
      <path
         d="M -7.9088346,6.9104427 V 9.039757 a 2.7091454,1.0646571 0 0 0 5.4182906,0 V 6.9104427"
         id="path921"
         style="fill:none;stroke:#ff6600;stroke-width:0.520004;stroke-linecap:round;stroke-linejoin:round" />
      <path
         d="m -7.9088346,9.039757 v 2.129314 a 2.7091454,1.0646571 0 0 0 5.4182906,0 V 9.039757"
         id="path923"
         style="fill:none;stroke:#ff6600;stroke-width:0.520004;stroke-linecap:round;stroke-linejoin:round" />
    </g>
    <circle
       style="fill:#09e600;fill-opacity:0.104839"
       id="path846"
       cx="-3.9958909"
       cy="2.140656"
       r="2.0693009" />
    <circle
       style="fill:#fde900;fill-opacity:0.19758064"
       id="circle848"
       cx="3.7818255"
       cy="3.9958911"
       r="2.0693009" />
    <circle
       style="fill:#09e600;fill-opacity:0.104839"
       id="circle882"
       cx="10.56057"
       cy="2.497432"
       r="2.0693009" />
    <circle
       style="fill:#3000e6;fill-opacity:0.104839;stroke-width:0.724138"
       id="circle886"
       cx="5.2089291"
       cy="13.985619"
       r="1.4984593" />
    <circle
       style="fill:#09e600;fill-opacity:0.104839"
       id="circle894"
       cx="2.8542082"
       cy="13.486133"
       r="2.0693009" />
    <circle
       style="fill:#00e6d0;fill-opacity:0.06048387;stroke-width:0.517241"
       id="circle896"
       cx="8.1344929"
       cy="6.7073879"
       r="1.0703281" />
    <circle
       style="fill:#00e6d0;fill-opacity:0.0604839;stroke-width:0.310345"
       id="circle898"
       cx="1.2130386"
       cy="8.9907541"
       r="0.64219689" />
    <circle
       style="fill:#09e600;fill-opacity:0.104839;stroke-width:0.965518"
       id="circle902"
       cx="-10.417859"
       cy="9.7756624"
       r="1.9979458" />
    <circle
       style="fill:#ef00a2;fill-opacity:0.112903;stroke-width:0.482759"
       id="circle904"
       cx="17.05389"
       cy="13.771553"
       r="0.99897289" />
  </g>
</svg>
